# xmcd
#
# Track frame offsets:
#	150
#	20177
#	36846
#	53424
#	75593
#	90527
#	118727
#	138739
#	155528
#	178565
#	195684
#	217255
#	233459
#	251363
#
# Disc length: 3571 seconds
#
# Revision: 0
# Processed by: cddbd v1.5.2PL0 Copyright (c) Steve Scherf et al.
# Submitted via: EasyCDDAExtractor 16.0.6.1
#
DISCID=ba0df10e
DTITLE=Steve and Heather - Country party
DYEAR=1900
DGENRE=Country
TTITLE0=Country BBQ
TTITLE1=Country show
TTITLE2=Swingin' arms
TTITLE3=Parmi nous Dream come true
TTITLE4=Black Denim trousers motorccycle boots l'home a la moto
TTITLE5=Naccoochee and John
TTITLE6=Amazing grace
TTITLE7=C'est la vie
TTITLE8=Walk of life
TTITLE9=Coming to life
TTITLE10=Sweet home Chicago
TTITLE11=Bas les pattes
TTITLE12=Bonus 1
TTITLE13=Bonus 2
EXTD=
EXTT0=
EXTT1=
EXTT2=
EXTT3=
EXTT4=
EXTT5=
EXTT6=
EXTT7=
EXTT8=
EXTT9=
EXTT10=
EXTT11=
EXTT12=
EXTT13=
PLAYORDER=
